<svg width="1512" height="982" viewBox="0 0 1512 982" fill="none" xmlns="http://www.w3.org/2000/svg">
<g clip-path="url(#clip0_22_287)">
<rect width="1512" height="982" fill="#5878C4"/>
<path d="M339.369 339.395C344.024 335.597 347 329.813 347 323.331C347 311.89 337.733 302.619 326.298 302.619C325.41 302.619 324.541 302.678 323.684 302.791C324.191 300.721 324.463 298.569 324.463 296.344C324.463 281.436 312.382 269.354 297.482 269.354C293.026 269.354 288.824 270.444 285.117 272.362C276.418 255.517 258.867 244 238.612 244C215.899 244 196.574 258.479 189.335 278.707C183.533 273.753 176.005 270.751 167.776 270.751C149.41 270.751 134.528 285.642 134.528 304.004C134.528 305.45 134.631 306.865 134.806 308.257C133.683 308.069 132.536 307.962 131.358 307.962C120.115 307.962 111 317.079 111 328.32C111 339.567 120.115 348.684 131.358 348.684C133.743 348.684 136.031 348.271 138.157 347.516C139.811 357.377 148.372 364.89 158.696 364.89C164.117 364.89 169.05 362.819 172.757 359.429C177.303 373.705 190.663 384.049 206.445 384.049C216.28 384.049 225.167 380.027 231.578 373.547C235.17 379.822 241.92 384.049 249.666 384.049C255.897 384.049 261.481 381.308 265.303 376.972C271.745 383.761 280.843 388 290.943 388C309.846 388 325.284 373.162 326.244 354.492C328.109 357.24 331.249 359.04 334.817 359.04C340.54 359.04 345.177 354.402 345.177 348.684C345.177 344.603 342.804 341.077 339.369 339.395" fill="white"/>
<path d="M108.911 105.94C109.819 104.362 110.339 102.538 110.339 100.586C110.339 94.6542 105.534 89.8448 99.5985 89.8448C98.5333 89.8448 97.5038 90.0015 96.5312 90.2901C96.663 89.3353 96.7307 88.3557 96.7307 87.3653C96.7307 78.9827 91.932 71.7259 84.9353 68.1848C85.8971 66.1007 86.4351 63.7851 86.4351 61.3377C86.4351 52.3174 79.1213 45 70.0975 45C63.5175 45 57.846 48.8938 55.2597 54.4977C53.001 52.2426 49.8803 50.8425 46.4353 50.8425C40.7282 50.8425 35.9188 54.6794 34.4368 59.9127C32.8943 59.6134 31.3019 59.4531 29.6702 59.4531C15.9582 59.4531 4.84314 70.5681 4.84314 84.2837C4.84314 86.1006 5.03907 87.8711 5.40956 89.574C4.72556 89.4422 4.02378 89.371 3.30059 89.371C-2.76278 89.371 -7.67549 94.2836 -7.67549 100.351C-7.67549 101.765 -7.40474 103.119 -6.91668 104.362C-7.16606 104.333 -7.41899 104.316 -7.67549 104.316C-11.1703 104.316 -14 107.148 -14 110.639C-14 114.13 -11.1703 116.962 -7.6755 116.962C-4.18425 116.962 101.398 116.963 104.682 116.963C108.173 116.963 111.006 114.13 111.006 110.639C111.006 108.772 110.197 107.094 108.911 105.94" fill="white"/>
<path d="M126.465 865.918C126.374 865.918 126.286 865.925 126.195 865.925C126.368 864.894 126.465 863.849 126.465 862.771C126.465 852.427 118.12 844.034 107.829 844.034C103.173 844.034 98.9215 845.755 95.6556 848.589C93.0491 829.617 76.8671 815 57.2804 815C41.5296 815 27.9827 824.459 21.9202 838.031C15.5136 838.664 9.77735 841.597 5.53601 845.997C1.96083 842.782 -2.75507 840.828 -7.92649 840.828C-19.096 840.828 -28.154 849.937 -28.154 861.168C-28.154 863.938 -27.6013 866.572 -26.6095 868.97C-27.1168 868.919 -27.6325 868.892 -28.154 868.892C-36.3522 868.892 -43 875.574 -43 883.822C-43 892.066 -36.3522 898.742 -28.154 898.742C-26.9067 898.742 -25.6984 898.589 -24.5392 898.296C-23.5374 908.463 -15.0093 916.407 -4.6374 916.407C1.44933 916.407 6.89471 913.669 10.5649 909.354C13.7611 913.604 18.8275 916.354 24.531 916.354C25.3391 916.354 26.1288 916.292 26.9079 916.184C29.3493 928.62 40.2511 938 53.332 938C67.572 938 79.224 926.885 80.1989 912.815C82.9665 913.972 86.0053 914.625 89.1936 914.625C102.109 914.625 112.582 904.088 112.582 891.104C112.582 890.107 112.512 889.13 112.395 888.17C114.873 893.482 120.24 897.166 126.465 897.166C135.045 897.166 142 890.171 142 881.539C142 872.91 135.045 865.918 126.465 865.918" fill="white"/>
<path d="M1201.47 758.918C1201.37 758.918 1201.29 758.925 1201.19 758.925C1201.37 757.894 1201.47 756.849 1201.47 755.771C1201.47 745.427 1193.12 737.034 1182.83 737.034C1178.17 737.034 1173.92 738.755 1170.66 741.589C1168.05 722.617 1151.87 708 1132.28 708C1116.53 708 1102.98 717.459 1096.92 731.031C1090.51 731.664 1084.78 734.597 1080.54 738.997C1076.96 735.782 1072.24 733.828 1067.07 733.828C1055.9 733.828 1046.85 742.937 1046.85 754.168C1046.85 756.938 1047.4 759.572 1048.39 761.97C1047.88 761.919 1047.37 761.892 1046.85 761.892C1038.65 761.892 1032 768.574 1032 776.822C1032 785.066 1038.65 791.742 1046.85 791.742C1048.09 791.742 1049.3 791.589 1050.46 791.296C1051.46 801.463 1059.99 809.407 1070.36 809.407C1076.45 809.407 1081.89 806.669 1085.56 802.354C1088.76 806.604 1093.83 809.354 1099.53 809.354C1100.34 809.354 1101.13 809.292 1101.91 809.184C1104.35 821.62 1115.25 831 1128.33 831C1142.57 831 1154.22 819.885 1155.2 805.815C1157.97 806.972 1161.01 807.625 1164.19 807.625C1177.11 807.625 1187.58 797.088 1187.58 784.104C1187.58 783.107 1187.51 782.13 1187.39 781.17C1189.87 786.482 1195.24 790.166 1201.47 790.166C1210.04 790.166 1217 783.171 1217 774.539C1217 765.91 1210.04 758.918 1201.47 758.918" fill="white"/>
<path d="M221.53 591.502C221.621 590.829 221.674 590.143 221.674 589.447C221.674 582.354 216.754 576.423 210.142 574.851C210.705 573.588 211.023 572.192 211.023 570.723C211.023 565.147 206.491 560.62 200.897 560.62C198.363 560.62 196.048 561.55 194.272 563.082C189.293 557.352 181.94 553.728 173.74 553.728C167.893 553.728 162.48 555.568 158.049 558.707C158.259 557.392 158.369 556.044 158.369 554.67C158.369 540.493 146.851 529 132.648 529C123.408 529 115.304 533.862 110.77 541.166C107.411 535.885 101.507 532.378 94.7768 532.378C91.3256 532.378 88.0932 533.302 85.3085 534.921C82.5216 533.302 79.2892 532.378 75.838 532.378C65.3808 532.378 56.9032 540.848 56.9032 551.282C56.9032 553.014 57.1425 554.688 57.5789 556.278C48.2692 559.821 41.6574 568.804 41.6574 579.336C41.6574 579.863 41.6775 580.383 41.7089 580.897C41.2347 580.857 40.7537 580.827 40.2706 580.827C31.8356 580.827 25 587.652 25 596.07C25 604.488 31.8356 611.311 40.2706 611.311C42.7758 611.311 45.1421 610.706 47.227 609.643C50.4841 616.546 57.5164 621.323 65.6694 621.323C70.2526 621.323 74.4803 619.816 77.8845 617.266C84.358 623.296 93.0498 627 102.61 627C112.385 627 121.256 623.129 127.774 616.849C131.465 622.062 137.54 625.455 144.416 625.455C155.24 625.455 164.086 617.043 164.75 606.408C167.564 607.39 170.589 607.933 173.74 607.933C182.068 607.933 189.516 604.192 194.498 598.298C197.236 602.03 201.651 604.453 206.635 604.453C209.464 604.453 212.11 603.671 214.37 602.31C215.577 604.951 218.243 606.79 221.339 606.79C225.569 606.79 229 603.361 229 599.144C229 594.983 225.674 591.601 221.53 591.502" fill="white"/>
<path d="M902.369 641.395C907.024 637.597 910 631.813 910 625.331C910 613.89 900.733 604.619 889.298 604.619C888.41 604.619 887.541 604.678 886.684 604.791C887.191 602.721 887.463 600.569 887.463 598.344C887.463 583.436 875.382 571.354 860.482 571.354C856.026 571.354 851.824 572.444 848.117 574.362C839.418 557.517 821.867 546 801.612 546C778.899 546 759.574 560.479 752.335 580.707C746.533 575.753 739.005 572.751 730.776 572.751C712.41 572.751 697.528 587.642 697.528 606.004C697.528 607.45 697.631 608.865 697.806 610.257C696.683 610.069 695.536 609.962 694.358 609.962C683.115 609.962 674 619.079 674 630.32C674 641.567 683.115 650.684 694.358 650.684C696.743 650.684 699.031 650.271 701.157 649.516C702.811 659.377 711.372 666.89 721.696 666.89C727.117 666.89 732.05 664.819 735.757 661.429C740.303 675.705 753.663 686.049 769.445 686.049C779.28 686.049 788.167 682.027 794.578 675.547C798.17 681.822 804.92 686.049 812.666 686.049C818.897 686.049 824.481 683.308 828.303 678.972C834.745 685.761 843.843 690 853.943 690C872.846 690 888.284 675.162 889.244 656.492C891.109 659.24 894.249 661.04 897.817 661.04C903.54 661.04 908.177 656.402 908.177 650.684C908.177 646.603 905.804 643.077 902.369 641.395" fill="white"/>
<path d="M671.911 407.94C672.819 406.362 673.339 404.538 673.339 402.586C673.339 396.654 668.534 391.845 662.599 391.845C661.533 391.845 660.504 392.002 659.531 392.29C659.663 391.335 659.731 390.356 659.731 389.365C659.731 380.983 654.932 373.726 647.935 370.185C648.897 368.101 649.435 365.785 649.435 363.338C649.435 354.317 642.121 347 633.097 347C626.518 347 620.846 350.894 618.26 356.498C616.001 354.243 612.88 352.843 609.435 352.843C603.728 352.843 598.919 356.679 597.437 361.913C595.894 361.613 594.302 361.453 592.67 361.453C578.958 361.453 567.843 372.568 567.843 386.284C567.843 388.101 568.039 389.871 568.41 391.574C567.726 391.442 567.024 391.371 566.301 391.371C560.237 391.371 555.325 396.284 555.325 402.351C555.325 403.765 555.595 405.119 556.083 406.362C555.834 406.333 555.581 406.316 555.325 406.316C551.83 406.316 549 409.148 549 412.639C549 416.13 551.83 418.962 555.325 418.962C558.816 418.962 664.398 418.963 667.682 418.963C671.173 418.963 674.006 416.13 674.006 412.639C674.006 410.772 673.197 409.094 671.911 407.94" fill="white"/>
<path d="M784.53 893.502C784.621 892.829 784.674 892.143 784.674 891.447C784.674 884.354 779.754 878.423 773.142 876.851C773.705 875.588 774.023 874.192 774.023 872.723C774.023 867.147 769.491 862.62 763.897 862.62C761.363 862.62 759.048 863.55 757.272 865.082C752.293 859.352 744.94 855.728 736.74 855.728C730.893 855.728 725.48 857.568 721.049 860.707C721.259 859.392 721.369 858.044 721.369 856.67C721.369 842.493 709.851 831 695.648 831C686.408 831 678.304 835.862 673.77 843.166C670.411 837.885 664.507 834.378 657.777 834.378C654.326 834.378 651.093 835.302 648.309 836.921C645.522 835.302 642.289 834.378 638.838 834.378C628.381 834.378 619.903 842.848 619.903 853.282C619.903 855.014 620.143 856.688 620.579 858.278C611.269 861.821 604.657 870.804 604.657 881.336C604.657 881.863 604.678 882.383 604.709 882.897C604.235 882.857 603.754 882.827 603.271 882.827C594.836 882.827 588 889.652 588 898.07C588 906.488 594.836 913.311 603.271 913.311C605.776 913.311 608.142 912.706 610.227 911.643C613.484 918.546 620.516 923.323 628.669 923.323C633.253 923.323 637.48 921.816 640.885 919.266C647.358 925.296 656.05 929 665.61 929C675.385 929 684.256 925.129 690.774 918.849C694.465 924.062 700.54 927.455 707.416 927.455C718.24 927.455 727.086 919.043 727.75 908.408C730.564 909.39 733.589 909.933 736.74 909.933C745.068 909.933 752.516 906.192 757.498 900.298C760.236 904.03 764.651 906.453 769.635 906.453C772.464 906.453 775.11 905.671 777.37 904.31C778.577 906.951 781.243 908.79 784.339 908.79C788.569 908.79 792 905.361 792 901.144C792 896.983 788.674 893.601 784.53 893.502" fill="white"/>
<path d="M539.871 107.548C541.43 105.057 542.331 102.123 542.331 98.9669C542.331 90.0164 535.059 82.7546 526.088 82.7546C521.874 82.7546 518.036 84.3537 515.149 86.9766C511.109 80.4167 503.848 76.0365 495.563 76.0365C490.957 76.0365 486.671 77.3928 483.073 79.7201C480.933 60.1937 464.358 45 444.224 45C430.185 45 417.879 52.3884 410.984 63.4815C407.904 61.9458 404.426 61.0803 400.75 61.0803C388.059 61.0803 377.776 71.3501 377.776 84.0107C377.776 87.8685 378.729 91.4941 380.412 94.6817C379.542 94.6131 378.665 94.5708 377.776 94.5708C360.779 94.5708 347 108.319 347 125.285C347 142.247 360.779 156 377.776 156C394.774 156 520.848 156 534.42 156C547.997 156 559 145.018 559 131.471C559 119.792 550.822 110.023 539.871 107.548Z" fill="white"/>
<path d="M1393.28 433.583C1390.61 433.583 1388.05 434.049 1385.67 434.903C1385.72 434.215 1385.75 433.516 1385.75 432.81C1385.75 417.453 1373.36 404.998 1358.08 404.998C1349.72 404.998 1342.23 408.721 1337.15 414.612C1329.78 402.829 1316.73 395 1301.86 395C1283.85 395 1268.52 406.473 1262.69 422.54C1259.43 421.267 1255.9 420.561 1252.2 420.561C1236.21 420.561 1223.24 433.59 1223.24 449.664C1223.24 450.748 1223.31 451.822 1223.42 452.877C1223.36 452.877 1223.31 452.871 1223.24 452.871C1210.96 452.871 1201 462.876 1201 475.221C1201 487.559 1210.96 497.571 1223.24 497.571C1229.04 497.571 1234.31 495.339 1238.28 491.691C1238.26 491.982 1238.25 492.281 1238.25 492.574C1238.25 510.232 1252.49 524.538 1270.06 524.538C1281.48 524.538 1291.5 518.474 1297.1 509.387C1304.95 525.163 1321.17 536 1339.91 536C1366.34 536 1387.75 514.481 1387.75 487.933C1387.75 484.628 1387.42 481.399 1386.79 478.284C1388.85 478.903 1391.03 479.237 1393.28 479.237C1405.83 479.237 1416 469.018 1416 456.411C1416 443.806 1405.83 433.583 1393.28 433.583Z" fill="white"/>
<path d="M1540.53 31.214C1538.94 31.214 1537.45 31.6518 1536.18 32.4192C1535.28 25.1596 1529.09 19.5385 1521.59 19.5385C1520.35 19.5385 1519.15 19.6943 1518 19.981C1517.13 15.796 1513.42 12.6475 1508.98 12.6475C1506.97 12.6475 1505.11 13.2952 1503.6 14.3859C1501.22 6.12127 1493.61 0.0732127 1484.59 0.0732127C1483.21 0.0732127 1481.87 0.212584 1480.58 0.479997C1475.8 -10.9629 1464.52 -19 1451.36 -19C1433.88 -19 1419.71 -4.82167 1419.71 12.6722C1419.71 15.2616 1420.02 17.7754 1420.61 20.1829C1418.03 18.5331 1414.96 17.5789 1411.67 17.5789C1402.46 17.5789 1395 25.045 1395 34.2609C1395 43.4717 1402.46 50.9412 1411.67 50.9412C1412.96 50.9412 1414.21 50.7905 1415.42 50.5118C1415.14 51.089 1414.94 51.717 1414.84 52.3845C1414.33 55.8903 1416.76 59.1454 1420.26 59.6538C1422.08 59.9195 1423.83 59.3834 1425.16 58.3205C1427.66 64.2321 1433.1 68.7336 1439.91 69.7256C1444.87 70.4472 1449.67 69.1715 1453.48 66.5083C1453.98 73.6663 1459.39 79.7584 1466.77 80.8356C1474.37 81.9426 1481.48 77.3509 1483.8 70.2915C1487.04 72.8137 1490.94 74.5584 1495.29 75.1948C1508.68 77.1426 1521.1 67.8646 1523.05 54.4717C1523.08 54.2618 1523.1 54.0536 1523.13 53.8437C1524.42 55.6837 1526.44 57.017 1528.84 57.3646C1533.46 58.0417 1537.76 54.8328 1538.44 50.2003C1538.55 49.4211 1538.55 48.6504 1538.46 47.9044C1539.12 48.0715 1539.82 48.1617 1540.53 48.1617C1545.21 48.1617 1549 44.3655 1549 39.6889C1549 35.0069 1545.21 31.214 1540.53 31.214" fill="white"/>
<path d="M1526.03 680.461C1523.8 680.461 1521.7 680.948 1519.8 681.809C1520.8 678.759 1521.35 675.5 1521.35 672.111C1521.35 654.833 1507.26 640.819 1489.87 640.819C1483.35 640.819 1477.31 642.787 1472.28 646.152C1467.61 640.559 1460.56 637 1452.67 637C1442.23 637 1433.26 643.241 1429.32 652.174C1425.7 650.133 1421.51 648.967 1417.05 648.967C1403.28 648.967 1392.11 660.065 1392.11 673.759C1392.11 675.134 1392.23 676.476 1392.44 677.791C1390.08 676.615 1387.41 675.948 1384.59 675.948C1374.87 675.948 1367 683.778 1367 693.435C1367 703.087 1374.87 710.917 1384.59 710.917C1387.58 710.917 1390.39 710.17 1392.86 708.865C1395.91 722.282 1407.97 732.309 1422.39 732.309C1429.11 732.309 1435.31 730.133 1440.33 726.454C1445.67 734.606 1454.92 740 1465.44 740C1479.99 740 1492.11 729.685 1494.82 716.009C1497.47 718.393 1500.99 719.842 1504.84 719.842C1511.82 719.842 1517.69 715.093 1519.35 708.67C1521.36 709.666 1523.63 710.23 1526.03 710.23C1534.29 710.23 1541 703.568 1541 695.346C1541 687.129 1534.29 680.461 1526.03 680.461" fill="white"/>
<path d="M1375.73 968.619C1375.23 968.619 1374.73 968.645 1374.23 968.686C1374.24 968.515 1374.24 968.339 1374.24 968.168C1374.24 951.201 1363.04 937.193 1348.51 934.991C1348.51 934.897 1348.52 934.794 1348.52 934.695C1348.52 930.855 1345.76 927.751 1342.35 927.751C1341.5 927.751 1340.69 927.943 1339.96 928.29C1333.1 913.271 1319.2 903 1303.17 903C1284.22 903 1268.25 917.35 1263.37 936.924C1261.86 936.4 1260.26 936.115 1258.61 936.115C1249.75 936.115 1242.56 944.2 1242.56 954.186C1242.56 957.223 1243.24 960.094 1244.42 962.607C1232.54 962.923 1223 973.848 1223 987.296C1223 1000.94 1232.82 1012 1244.94 1012C1257.05 1012 1367.55 1012 1375.73 1012C1386.38 1012 1395 1002.29 1395 990.307C1395 978.33 1386.38 968.619 1375.73 968.619" fill="white"/>
<path d="M1352.99 212.961C1351.32 212.961 1349.72 213.25 1348.23 213.78C1348.27 213.353 1348.29 212.919 1348.29 212.48C1348.29 202.944 1340.55 195.209 1331.02 195.209C1325.8 195.209 1321.13 197.521 1317.96 201.179C1313.36 193.862 1305.22 189 1295.94 189C1284.7 189 1275.13 196.125 1271.49 206.103C1269.46 205.312 1267.26 204.874 1264.95 204.874C1254.97 204.874 1246.88 212.965 1246.88 222.947C1246.88 223.62 1246.92 224.287 1246.99 224.942C1246.95 224.942 1246.92 224.938 1246.88 224.938C1239.21 224.938 1233 231.151 1233 238.818C1233 246.48 1239.21 252.698 1246.88 252.698C1250.5 252.698 1253.79 251.312 1256.26 249.046C1256.25 249.227 1256.25 249.412 1256.25 249.595C1256.25 260.56 1265.13 269.444 1276.09 269.444C1283.22 269.444 1289.47 265.679 1292.97 260.036C1297.86 269.832 1307.99 276.562 1319.68 276.562C1336.17 276.562 1349.53 263.199 1349.53 246.712C1349.53 244.66 1349.33 242.654 1348.93 240.72C1350.22 241.104 1351.58 241.312 1352.99 241.312C1360.81 241.312 1367.16 234.966 1367.16 227.137C1367.16 219.309 1360.81 212.961 1352.99 212.961Z" fill="white"/>
<path d="M497.283 677.583C494.612 677.583 492.048 678.049 489.667 678.903C489.719 678.215 489.753 677.516 489.753 676.81C489.753 661.453 477.359 648.998 462.075 648.998C453.717 648.998 446.227 652.721 441.151 658.612C433.775 646.829 420.73 639 405.858 639C387.851 639 372.517 650.473 366.688 666.54C363.433 665.267 359.899 664.561 356.2 664.561C340.209 664.561 327.243 677.59 327.243 693.664C327.243 694.748 327.306 695.822 327.42 696.877C327.363 696.877 327.306 696.871 327.243 696.871C314.957 696.871 305 706.876 305 719.221C305 731.559 314.957 741.571 327.243 741.571C333.038 741.571 338.313 739.339 342.275 735.691C342.264 735.982 342.253 736.281 342.253 736.574C342.253 754.232 356.491 768.538 374.058 768.538C385.482 768.538 395.496 762.474 401.102 753.387C408.946 769.163 425.172 780 443.915 780C470.336 780 491.751 758.481 491.751 731.933C491.751 728.628 491.42 725.399 490.792 722.284C492.848 722.903 495.028 723.237 497.283 723.237C509.826 723.237 520 713.018 520 700.411C520 687.806 509.826 677.583 497.283 677.583Z" fill="white"/>
<path d="M456.985 456.961C455.318 456.961 453.719 457.25 452.233 457.78C452.265 457.353 452.286 456.919 452.286 456.48C452.286 446.944 444.552 439.209 435.015 439.209C429.8 439.209 425.126 441.521 421.959 445.179C417.356 437.862 409.216 433 399.935 433C388.699 433 379.13 440.125 375.493 450.103C373.463 449.312 371.257 448.874 368.949 448.874C358.97 448.874 350.88 456.965 350.88 466.947C350.88 467.62 350.919 468.287 350.99 468.942C350.955 468.942 350.919 468.938 350.88 468.938C343.213 468.938 337 475.151 337 482.818C337 490.48 343.213 496.698 350.88 496.698C354.496 496.698 357.788 495.312 360.26 493.046C360.253 493.227 360.246 493.412 360.246 493.595C360.246 504.56 369.131 513.444 380.092 513.444C387.221 513.444 393.47 509.679 396.968 504.036C401.863 513.832 411.987 520.562 423.683 520.562C440.17 520.562 453.533 507.199 453.533 490.712C453.533 488.66 453.327 486.654 452.935 484.72C454.217 485.104 455.578 485.312 456.985 485.312C464.812 485.312 471.161 478.966 471.161 471.137C471.161 463.309 464.812 456.961 456.985 456.961Z" fill="white"/>
<path d="M1110.63 -6.44621C1108.5 -6.44621 1106.47 -6.02549 1104.66 -5.28119C1105.62 -7.91678 1106.14 -10.733 1106.14 -13.6611C1106.14 -28.5907 1092.61 -40.7004 1075.93 -40.7004C1069.67 -40.7004 1063.87 -38.9996 1059.05 -36.092C1054.56 -40.9245 1047.79 -44 1040.22 -44C1030.2 -44 1021.6 -38.6076 1017.81 -30.8884C1014.34 -32.6519 1010.32 -33.66 1006.04 -33.66C992.817 -33.66 982.099 -24.07 982.099 -12.2372C982.099 -11.0497 982.212 -9.88961 982.419 -8.75369C980.148 -9.76959 977.591 -10.3459 974.88 -10.3459C965.557 -10.3459 958 -3.5804 958 4.7643C958 13.1045 965.557 19.8696 974.88 19.8696C977.752 19.8696 980.452 19.2249 982.82 18.0967C985.745 29.6898 997.32 38.3545 1011.16 38.3545C1017.61 38.3545 1023.56 36.4742 1028.38 33.2951C1033.51 40.3387 1042.38 45 1052.48 45C1066.44 45 1078.08 36.0871 1080.67 24.27C1083.22 26.3296 1086.6 27.5823 1090.3 27.5823C1097 27.5823 1102.63 23.4781 1104.22 17.9288C1106.15 18.7894 1108.33 19.2761 1110.63 19.2761C1118.56 19.2761 1125 13.5203 1125 6.41555C1125 -0.684268 1118.56 -6.44621 1110.63 -6.44621" fill="white"/>
<path d="M996.628 237.554C994.495 237.554 992.475 237.975 990.656 238.719C991.616 236.083 992.142 233.267 992.142 230.339C992.142 215.409 978.615 203.3 961.926 203.3C955.674 203.3 949.868 205 945.049 207.908C940.561 203.076 933.794 200 926.223 200C916.202 200 907.596 205.392 903.814 213.112C900.336 211.348 896.322 210.34 892.041 210.34C878.817 210.34 868.099 219.93 868.099 231.763C868.099 232.95 868.212 234.11 868.419 235.246C866.148 234.23 863.591 233.654 860.88 233.654C851.557 233.654 844 240.42 844 248.764C844 257.104 851.557 263.87 860.88 263.87C863.752 263.87 866.452 263.225 868.82 262.097C871.745 273.69 883.32 282.354 897.162 282.354C903.608 282.354 909.563 280.474 914.382 277.295C919.508 284.339 928.383 289 938.477 289C952.441 289 964.075 280.087 966.673 268.27C969.219 270.33 972.595 271.582 976.299 271.582C982.997 271.582 988.628 267.478 990.22 261.929C992.149 262.789 994.325 263.276 996.628 263.276C1004.56 263.276 1011 257.52 1011 250.416C1011 243.316 1004.56 237.554 996.628 237.554" fill="white"/>
</g>
<defs>
<clipPath id="clip0_22_287">
<rect width="1512" height="982" fill="white"/>
</clipPath>
</defs>
</svg>
