<svg width="36" height="36" viewBox="0 0 36 36" fill="none" xmlns="http://www.w3.org/2000/svg">
<path d="M18 36C27.3888 36 35 28.3888 35 19C35 9.61116 27.3888 2 18 2C8.61116 2 1 9.61116 1 19C1 28.3888 8.61116 36 18 36Z" fill="#F4900C"/>
<path d="M18 34C27.3888 34 35 26.3888 35 17C35 7.61116 27.3888 0 18 0C8.61116 0 1 7.61116 1 17C1 26.3888 8.61116 34 18 34Z" fill="#FFCC4D"/>
<path d="M18 32C25.732 32 32 25.732 32 18C32 10.268 25.732 4 18 4C10.268 4 4 10.268 4 18C4 25.732 10.268 32 18 32Z" fill="#FFE8B6"/>
<path d="M18 31C25.732 31 32 24.732 32 17C32 9.26801 25.732 3 18 3C10.268 3 4 9.26801 4 17C4 24.732 10.268 31 18 31Z" fill="#FFAC33"/>
<path d="M9.54297 10.856C9.54297 10.311 10.078 10.093 10.078 10.093L17.956 6.39301L25.909 10.093C25.909 10.093 26.457 10.215 26.457 10.86V11.501H9.54297V10.856Z" fill="#FFE8B6"/>
<path d="M25.929 12.836C25.929 12.252 25.424 11.779 24.802 11.779H11.129C10.506 11.779 10.072 12.252 10.072 12.836C10.072 13.233 10.276 13.575 10.601 13.756V14.422H12.715V13.893H14.829V14.422H16.943V13.893H19.057V14.422H21.171V13.893H23.285V14.422H25.4V13.729C25.717 13.541 25.929 13.212 25.929 12.836ZM27.514 24C27.514 24.2103 27.4304 24.412 27.2817 24.5607C27.133 24.7094 26.9313 24.793 26.721 24.793H9.27896C9.06865 24.793 8.86694 24.7094 8.71823 24.5607C8.56951 24.412 8.48596 24.2103 8.48596 24C8.48596 23.7897 8.56951 23.588 8.71823 23.4393C8.86694 23.2905 9.06865 23.207 9.27896 23.207H26.722C27.159 23.207 27.514 23.562 27.514 24Z" fill="#F4900C"/>
<path d="M26.4569 12.2C26.4569 12.3403 26.4012 12.4748 26.302 12.574C26.2028 12.6733 26.0682 12.729 25.9279 12.729H10.0709C9.93627 12.7207 9.80982 12.6614 9.71739 12.5631C9.62495 12.4648 9.57349 12.3349 9.57349 12.2C9.57349 12.0651 9.62495 11.9352 9.71739 11.8369C9.80982 11.7386 9.93627 11.6793 10.0709 11.671L25.9279 11.674C25.9972 11.6737 26.0659 11.6871 26.13 11.7134C26.1941 11.7397 26.2524 11.7784 26.3015 11.8273C26.3507 11.8761 26.3897 11.9342 26.4164 11.9982C26.443 12.0621 26.4568 12.1307 26.4569 12.2ZM12.1859 12.814H23.8149V14H12.1859V12.814Z" fill="#F4900C"/>
<path d="M12.714 20.829C12.714 21.413 12.398 21.886 12.009 21.886H11.304C10.915 21.886 10.599 21.413 10.599 20.829V12.815C10.599 12.231 10.915 11.758 11.304 11.758H12.009C12.398 11.758 12.714 12.231 12.714 12.815V20.829ZM25.4 20.829C25.4 21.413 25.085 21.886 24.695 21.886H23.99C23.601 21.886 23.285 21.413 23.285 20.829V12.815C23.285 12.231 23.6 11.758 23.99 11.758H24.695C25.084 11.758 25.4 12.231 25.4 12.815V20.829ZM16.943 20.829C16.943 21.413 16.627 21.886 16.238 21.886H15.533C15.144 21.886 14.828 21.413 14.828 20.829V12.815C14.828 12.231 15.144 11.758 15.533 11.758H16.238C16.627 11.758 16.943 12.231 16.943 12.815V20.829ZM21.171 20.829C21.171 21.413 20.855 21.886 20.466 21.886H19.762C19.373 21.886 19.057 21.413 19.057 20.829V12.815C19.057 12.231 19.373 11.758 19.762 11.758H20.466C20.855 11.758 21.171 12.231 21.171 12.815V20.829Z" fill="#FFD983"/>
<path d="M25.929 21.357C25.929 21.941 25.456 22.414 24.872 22.414H11.129C10.8487 22.414 10.5798 22.3026 10.3816 22.1044C10.1834 21.9062 10.072 21.6373 10.072 21.357C10.072 21.0767 10.1834 20.8078 10.3816 20.6096C10.5798 20.4114 10.8487 20.3 11.129 20.3H24.872C25.455 20.3 25.929 20.773 25.929 21.357Z" fill="#FFCC4D"/>
<path d="M26.986 22.414C26.986 22.998 26.513 23.471 25.929 23.471H10.071C9.7907 23.471 9.52185 23.3596 9.32363 23.1614C9.1254 22.9632 9.01404 22.6943 9.01404 22.414C9.01404 22.1337 9.1254 21.8648 9.32363 21.6666C9.52185 21.4684 9.7907 21.357 10.071 21.357H25.928C26.512 21.357 26.986 21.83 26.986 22.414Z" fill="#FFD983"/>
<path d="M27.514 23.207C27.514 23.4173 27.4304 23.619 27.2817 23.7677C27.133 23.9165 26.9313 24 26.721 24H9.27896C9.17482 24 9.0717 23.9795 8.97549 23.9396C8.87928 23.8998 8.79186 23.8414 8.71823 23.7677C8.64459 23.6941 8.58618 23.6067 8.54633 23.5105C8.50647 23.4143 8.48596 23.3111 8.48596 23.207C8.48596 23.1029 8.50647 22.9997 8.54633 22.9035C8.58618 22.8073 8.64459 22.7199 8.71823 22.6463C8.79186 22.5726 8.87928 22.5142 8.97549 22.4744C9.0717 22.4345 9.17482 22.414 9.27896 22.414H26.722C27.159 22.414 27.514 22.769 27.514 23.207Z" fill="#FFD983"/>
<path d="M25.929 12.286C25.929 11.702 25.424 11.229 24.802 11.229H11.129C10.506 11.229 10.072 11.702 10.072 12.286C10.072 12.683 10.276 13.025 10.601 13.206V13.872H12.715V13.343H14.829V13.872H16.943V13.343H19.057V13.872H21.171V13.343H23.285V13.872H25.4V13.179C25.717 12.991 25.929 12.662 25.929 12.286Z" fill="#FFCC4D"/>
<path d="M9.54297 11.463C9.54297 10.918 10.078 10.7 10.078 10.7L17.956 7L25.909 10.7C25.909 10.7 26.457 10.822 26.457 11.467V11.758H9.54297V11.463Z" fill="#FFD983"/>
<path d="M18 8.34299C18 8.34299 12.545 10.914 12.001 11.146C11.456 11.377 11.638 11.757 12.002 11.757H23.972C24.534 11.757 24.401 11.328 23.955 11.096C23.509 10.865 18 8.34299 18 8.34299Z" fill="#FFAC33"/>
<path d="M26.4569 11.757C26.4569 11.8973 26.4012 12.0319 26.302 12.1311C26.2028 12.2303 26.0682 12.286 25.9279 12.286H10.0709C9.93627 12.2777 9.80982 12.2184 9.71739 12.1201C9.62495 12.0218 9.57349 11.8919 9.57349 11.757C9.57349 11.6221 9.62495 11.4922 9.71739 11.3939C9.80982 11.2956 9.93627 11.2363 10.0709 11.228L25.9279 11.231C25.9972 11.2307 26.0659 11.2441 26.13 11.2704C26.1941 11.2967 26.2524 11.3354 26.3015 11.3843C26.3507 11.4331 26.3897 11.4912 26.4164 11.5552C26.443 11.6191 26.4568 11.6877 26.4569 11.757Z" fill="#FFD983"/>
</svg>
